<?xml version="1.0" standalone="no"?>
<!DOCTYPE svg PUBLIC "-//W3C//DTD SVG 20010904//EN"
 "http://www.w3.org/TR/2001/REC-SVG-20010904/DTD/svg10.dtd">
<svg version="1.0" xmlns="http://www.w3.org/2000/svg"
 width="310.000000pt" height="310.000000pt" viewBox="0 0 310.000000 310.000000"
 preserveAspectRatio="xMidYMid meet">
<metadata>
Created by potrace 1.11, written by Peter Selinger 2001-2013
</metadata>
<g transform="translate(0.000000,310.000000) scale(0.100000,-0.100000)"
fill="#000000" stroke="none">
<path d="M1675 2901 c-100 -27 -179 -91 -222 -180 -23 -47 -27 -69 -27 -141 0
-72 4 -94 27 -141 32 -67 98 -131 165 -161 66 -30 198 -30 264 0 67 30 133 94
165 161 23 47 27 69 27 141 0 72 -4 94 -27 141 -32 67 -99 132 -165 160 -52
22 -160 33 -207 20z m58 -18 c-7 -2 -21 -2 -30 0 -10 3 -4 5 12 5 17 0 24 -2
18 -5z m70 0 c-7 -2 -21 -2 -30 0 -10 3 -4 5 12 5 17 0 24 -2 18 -5z m-230
-59 c-18 -13 -46 -42 -64 -62 -17 -20 -26 -28 -21 -16 12 22 97 104 109 104 5
0 -6 -12 -24 -26z m383 -16 c25 -23 50 -51 56 -62 5 -12 -4 -4 -21 16 -18 20
-46 49 -64 62 -18 14 -29 26 -24 26 4 0 28 -19 53 -42z m-499 -150 c-3 -8 -6
-5 -6 6 -1 11 2 17 5 13 3 -3 4 -12 1 -19z m590 0 c-3 -8 -6 -5 -6 6 -1 11 2
17 5 13 3 -3 4 -12 1 -19z m-600 -110 c-2 -18 -4 -4 -4 32 0 36 2 50 4 33 2
-18 2 -48 0 -65z m610 0 c-2 -18 -4 -4 -4 32 0 36 2 50 4 33 2 -18 2 -48 0
-65z m-600 -60 c-3 -8 -6 -5 -6 6 -1 11 2 17 5 13 3 -3 4 -12 1 -19z m590 0
c-3 -8 -6 -5 -6 6 -1 11 2 17 5 13 3 -3 4 -12 1 -19z m-479 -149 c20 -17 28
-26 16 -21 -22 12 -104 97 -104 109 0 5 12 -6 26 -24 13 -18 42 -46 62 -64z
m452 86 c0 -9 -83 -96 -101 -106 -10 -5 8 18 39 50 61 63 62 64 62 56z m-287
-152 c-7 -2 -21 -2 -30 0 -10 3 -4 5 12 5 17 0 24 -2 18 -5z m70 0 c-7 -2 -21
-2 -30 0 -10 3 -4 5 12 5 17 0 24 -2 18 -5z"/>
<path d="M485 2261 c-100 -27 -179 -91 -222 -180 -23 -47 -27 -69 -27 -141 0
-72 4 -94 27 -141 32 -67 98 -131 165 -161 66 -30 198 -30 264 0 67 30 133 94
165 161 23 47 27 69 27 141 0 72 -4 94 -27 141 -32 67 -99 132 -165 160 -52
22 -160 33 -207 20z m58 -18 c-7 -2 -21 -2 -30 0 -10 3 -4 5 12 5 17 0 24 -2
18 -5z m70 0 c-7 -2 -21 -2 -30 0 -10 3 -4 5 12 5 17 0 24 -2 18 -5z m-230
-59 c-18 -13 -46 -42 -64 -62 -17 -20 -26 -28 -21 -16 12 22 97 104 109 104 5
0 -6 -12 -24 -26z m383 -16 c25 -23 50 -51 56 -62 5 -12 -4 -4 -21 16 -18 20
-46 49 -64 62 -18 14 -29 26 -24 26 4 0 28 -19 53 -42z m-499 -150 c-3 -8 -6
-5 -6 6 -1 11 2 17 5 13 3 -3 4 -12 1 -19z m590 0 c-3 -8 -6 -5 -6 6 -1 11 2
17 5 13 3 -3 4 -12 1 -19z m-600 -110 c-2 -18 -4 -4 -4 32 0 36 2 50 4 33 2
-18 2 -48 0 -65z m610 0 c-2 -18 -4 -4 -4 32 0 36 2 50 4 33 2 -18 2 -48 0
-65z m-600 -60 c-3 -8 -6 -5 -6 6 -1 11 2 17 5 13 3 -3 4 -12 1 -19z m590 0
c-3 -8 -6 -5 -6 6 -1 11 2 17 5 13 3 -3 4 -12 1 -19z m-479 -149 c20 -17 28
-26 16 -21 -22 12 -104 97 -104 109 0 5 12 -6 26 -24 13 -18 42 -46 62 -64z
m452 86 c0 -9 -83 -96 -101 -106 -10 -5 8 18 39 50 61 63 62 64 62 56z m-287
-152 c-7 -2 -21 -2 -30 0 -10 3 -4 5 12 5 17 0 24 -2 18 -5z m70 0 c-7 -2 -21
-2 -30 0 -10 3 -4 5 12 5 17 0 24 -2 18 -5z"/>
<path d="M2635 1953 c-75 -255 -187 -547 -282 -738 -127 -254 -237 -387 -349
-422 -82 -25 -500 -25 -684 0 -237 33 -662 113 -761 143 -14 4 -24 -24 -58
-162 -23 -92 -39 -169 -36 -172 9 -10 306 -72 510 -107 351 -61 436 -69 725
-69 281 -1 333 5 462 54 246 92 470 423 689 1017 47 127 151 454 146 458 -3 3
-323 85 -330 85 -3 0 -17 -39 -32 -87z"/>
</g>
</svg>
