<?xml version="1.0" encoding="utf-8"?>
<!DOCTYPE svg PUBLIC "-//W3C//DTD SVG 1.1 Tiny//EN" "http://www.w3.org/Graphics/SVG/1.1/DTD/svg11-tiny.dtd">
<svg version="1.1" baseProfile="tiny" xmlns="http://www.w3.org/2000/svg" xmlns:xlink="http://www.w3.org/1999/xlink"
	 x="0px" y="0px" width="250mm" height="250mm" viewBox="0 0 885.82677 885.82677" xml:space="preserve" preserveAspectRatio="none">
<g transform="translate(0,-166.53543)">
	<path fill="#85aec3" d="M 22.857143,778.07649 C 9.8062,848.28157 37.142857,1015.2194 37.142857,1015.2194 c 32.75366,43.783 202.777813,11.7075 294.285713,11.4285 91.5079,-0.279 171.34104,5.6268 254.28571,5.7143 82.94467,0.087 193.36099,11.2557 242.85714,11.4286 61.15612,0.2135 45.23807,-198.09396 42.85715,-285.7143 -2.38091,-87.62034 -15.6664,-178.13554 -8.57143,-251.42858 7.91211,-116.16923 38.98344,-268.25479 -35.71428,-309.99999 -74.69772,-41.7452 -272.92463,1.04146 -381.42857,1.42857 -125.68153,0.4484 -307.44281,-61.20675 -394.285717,25.71429 -86.842903,86.92103 -4.594786,392.88516 -28.57143,554.2857 z"/>
</g>
</svg>
